<svg width="432" height="432" viewBox="0 0 432 432" fill="none" xmlns="http://www.w3.org/2000/svg">
<g clip-path="url(#clip0_303_2)">
<path d="M380.263 0H51.7365C23.1632 0 0 23.1632 0 51.7365V380.263C0 408.837 23.1632 432 51.7365 432H380.263C408.837 432 432 408.837 432 380.263V51.7365C432 23.1632 408.837 0 380.263 0Z" fill="#3A3752"/>
<path d="M108.647 46.5629H263.856C276.715 46.5629 287.138 56.9862 287.138 69.8443V292.311C287.138 305.17 276.715 315.593 263.856 315.593H108.647C95.7886 315.593 85.3652 305.17 85.3652 292.311V69.8443C85.3652 56.9862 95.7886 46.5629 108.647 46.5629Z" fill="#F2DAB3" stroke="black" stroke-width="5.17365"/>
<path d="M103.503 105.161H172.746" stroke="black" stroke-width="7.76048" stroke-linecap="round"/>
<path d="M216.602 105.161H244.936" stroke="black" stroke-width="7.76048" stroke-linecap="round"/>
<path d="M103.503 137.694H228.092" stroke="black" stroke-width="7.76048" stroke-linecap="round"/>
<path d="M137.479 199.307H103.086V192.031H137.479C140.654 192.031 143.277 191.48 145.35 190.378C147.422 189.253 148.965 187.732 149.979 185.814C150.994 183.874 151.501 181.669 151.501 179.2C151.501 176.731 150.994 174.537 149.979 172.619C148.965 170.679 147.422 169.158 145.35 168.055C143.277 166.931 140.654 166.369 137.479 166.369H122.002V226.821H113.801V159.093H137.479C142.506 159.093 146.65 160.008 149.913 161.838C153.176 163.668 155.601 166.104 157.189 169.147C158.776 172.189 159.57 175.54 159.57 179.2C159.57 182.86 158.776 186.211 157.189 189.253C155.601 192.296 153.176 194.732 149.913 196.562C146.65 198.392 142.506 199.307 137.479 199.307ZM136.95 205.656V212.931H103.086V205.656H136.95Z" fill="black"/>
<path d="M187.545 245.749H76.3115C68.4539 245.749 62.084 252.118 62.084 259.976C62.084 267.834 68.4539 274.204 76.3115 274.204H187.545C195.403 274.204 201.773 267.834 201.773 259.976C201.773 252.118 195.403 245.749 187.545 245.749Z" fill="#F59A02" stroke="black" stroke-width="5.17365"/>
<path d="M187.545 279.377H76.3115C68.4539 279.377 62.084 285.747 62.084 293.605C62.084 301.462 68.4539 307.832 76.3115 307.832H187.545C195.403 307.832 201.773 301.462 201.773 293.605C201.773 285.747 195.403 279.377 187.545 279.377Z" fill="#F59A02" stroke="black" stroke-width="5.17365"/>
<path d="M187.545 313.006H76.3115C68.4539 313.006 62.084 319.376 62.084 327.234C62.084 335.091 68.4539 341.461 76.3115 341.461H187.545C195.403 341.461 201.773 335.091 201.773 327.234C201.773 319.376 195.403 313.006 187.545 313.006Z" fill="#F59A02" stroke="black" stroke-width="5.17365"/>
<path d="M187.545 346.635H76.3115C68.4539 346.635 62.084 353.005 62.084 360.862C62.084 368.72 68.4539 375.09 76.3115 375.09H187.545C195.403 375.09 201.773 368.72 201.773 360.862C201.773 353.005 195.403 346.635 187.545 346.635Z" fill="#F59A02" stroke="black" stroke-width="5.17365"/>
<path d="M187.545 380.263H76.3115C68.4539 380.263 62.084 386.633 62.084 394.491C62.084 402.349 68.4539 408.719 76.3115 408.719H187.545C195.403 408.719 201.773 402.349 201.773 394.491C201.773 386.633 195.403 380.263 187.545 380.263Z" fill="#F59A02" stroke="black" stroke-width="5.17365"/>
<path d="M73.112 416.48C104.919 416.48 130.703 390.695 130.703 358.889C130.703 327.082 104.919 301.297 73.112 301.297C41.3054 301.297 15.521 327.082 15.521 358.889C15.521 390.695 41.3054 416.48 73.112 416.48Z" fill="#F59A02" stroke="black" stroke-width="5.17365"/>
<path d="M87.2712 416.48C119.078 416.48 144.862 390.695 144.862 358.889C144.862 327.082 119.078 301.297 87.2712 301.297C55.4646 301.297 29.6802 327.082 29.6802 358.889C29.6802 390.695 55.4646 416.48 87.2712 416.48Z" fill="#F59A02" stroke="black" stroke-width="5.17365"/>
<path d="M25.1592 326.838L39.3187 329.197" stroke="black" stroke-width="5.17365"/>
<path d="M20.439 338.636L34.5983 340.998" stroke="black" stroke-width="5.17365"/>
<path d="M15.6519 352.786L29.8685 354.773" stroke="black" stroke-width="5.17365"/>
<path d="M15.3926 365.128L29.7217 365.987" stroke="black" stroke-width="5.17365"/>
<path d="M17.7134 376.598L32.0629 376.986" stroke="black" stroke-width="5.17365"/>
<path d="M24.0474 389.129L38.2938 387.367" stroke="black" stroke-width="5.17365"/>
<path d="M94.7423 365.684H60.3491V358.407H94.7423C97.9171 358.407 100.541 357.856 102.613 356.754C104.686 355.629 106.229 354.108 107.243 352.191C108.257 350.251 108.764 348.045 108.764 345.577C108.764 343.106 108.257 340.913 107.243 338.996C106.229 337.056 104.686 335.535 102.613 334.433C100.541 333.307 97.9171 332.746 94.7423 332.746H79.2653V393.198H71.064V325.469H94.7423C99.769 325.469 103.914 326.385 107.177 328.214C110.44 330.045 112.865 332.48 114.452 335.524C116.04 338.566 116.833 341.916 116.833 345.577C116.833 349.237 116.04 352.587 114.452 355.629C112.865 358.671 110.44 361.108 107.177 362.94C103.914 364.768 99.769 365.684 94.7423 365.684ZM94.2133 372.032V379.309H60.3491V372.032H94.2133Z" fill="black"/>
<path d="M363.481 170.731H258.683C235.824 170.731 217.293 189.261 217.293 212.12V367.329C217.293 390.188 235.824 408.719 258.683 408.719H363.481C386.339 408.719 404.87 390.188 404.87 367.329V212.12C404.87 189.261 386.339 170.731 363.481 170.731Z" fill="#FF6AD0" stroke="black" stroke-width="5.17365"/>
<path d="M361.903 200.384H260.26C254.545 200.384 249.913 205.017 249.913 210.732V229.344C249.913 235.059 254.545 239.691 260.26 239.691H361.903C367.618 239.691 372.251 235.059 372.251 229.344V210.732C372.251 205.017 367.618 200.384 361.903 200.384Z" fill="#DCE6FF" stroke="black" stroke-width="5.17365"/>
<path d="M271.806 270.261H252.499C250.356 270.261 248.619 271.998 248.619 274.141V293.448C248.619 295.591 250.356 297.328 252.499 297.328H271.806C273.949 297.328 275.686 295.591 275.686 293.448V274.141C275.686 271.998 273.949 270.261 271.806 270.261Z" fill="#742DBB" stroke="black" stroke-width="2.58683"/>
<path d="M271.806 320.671H252.499C250.356 320.671 248.619 322.408 248.619 324.551V343.858C248.619 346.001 250.356 347.738 252.499 347.738H271.806C273.949 347.738 275.686 346.001 275.686 343.858V324.551C275.686 322.408 273.949 320.671 271.806 320.671Z" fill="#742DBB" stroke="black" stroke-width="2.58683"/>
<path d="M322.219 270.261H302.912C300.769 270.261 299.032 271.998 299.032 274.141V293.448C299.032 295.591 300.769 297.328 302.912 297.328H322.219C324.361 297.328 326.099 295.591 326.099 293.448V274.141C326.099 271.998 324.361 270.261 322.219 270.261Z" fill="#742DBB" stroke="black" stroke-width="2.58683"/>
<path d="M322.219 320.671H302.912C300.769 320.671 299.032 322.408 299.032 324.551V343.858C299.032 346.001 300.769 347.738 302.912 347.738H322.219C324.361 347.738 326.099 346.001 326.099 343.858V324.551C326.099 322.408 324.361 320.671 322.219 320.671Z" fill="#742DBB" stroke="black" stroke-width="2.58683"/>
<path d="M369.664 270.261H350.357C348.214 270.261 346.477 271.998 346.477 274.141V293.448C346.477 295.591 348.214 297.328 350.357 297.328H369.664C371.807 297.328 373.544 295.591 373.544 293.448V274.141C373.544 271.998 371.807 270.261 369.664 270.261Z" fill="#742DBB" stroke="black" stroke-width="2.58683"/>
<path d="M369.664 320.671H350.357C348.214 320.671 346.477 322.408 346.477 324.551V343.858C346.477 346.001 348.214 347.738 350.357 347.738H369.664C371.807 347.738 373.544 346.001 373.544 343.858V324.551C373.544 322.408 371.807 320.671 369.664 320.671Z" fill="#742DBB" stroke="black" stroke-width="2.58683"/>
<path d="M369.664 362.187H252.499C250.356 362.187 248.619 363.924 248.619 366.067V385.374C248.619 387.517 250.356 389.254 252.499 389.254H369.664C371.807 389.254 373.544 387.517 373.544 385.374V366.067C373.544 363.924 371.807 362.187 369.664 362.187Z" fill="#3A3752" stroke="black" stroke-width="2.58683"/>
<path d="M275.652 227.641V225.994L280.743 220.718C281.289 220.145 281.736 219.643 282.088 219.212C282.448 218.775 282.714 218.362 282.89 217.97C283.066 217.577 283.154 217.161 283.154 216.72C283.154 216.22 283.038 215.789 282.802 215.427C282.567 215.059 282.246 214.778 281.84 214.582C281.434 214.381 280.973 214.28 280.464 214.28C279.926 214.28 279.455 214.39 279.054 214.611C278.653 214.832 278.343 215.143 278.128 215.544C277.913 215.946 277.804 216.416 277.804 216.955H275.637C275.637 216.039 275.846 215.238 276.268 214.552C276.69 213.866 277.269 213.335 278.004 212.958C278.738 212.575 279.574 212.384 280.51 212.384C281.454 212.384 282.287 212.573 283.007 212.95C283.733 213.323 284.297 213.832 284.706 214.479C285.112 215.12 285.314 215.846 285.314 216.654C285.314 217.213 285.211 217.759 284.998 218.293C284.794 218.827 284.435 219.422 283.92 220.079C283.405 220.73 282.688 221.522 281.773 222.452L278.782 225.583V225.693H285.557V227.641H275.652ZM293.582 227.891C292.423 227.886 291.429 227.579 290.607 226.972C289.784 226.364 289.153 225.48 288.718 224.319C288.281 223.158 288.064 221.759 288.064 220.123C288.064 218.491 288.281 217.097 288.718 215.941C289.158 214.785 289.792 213.903 290.614 213.295C291.442 212.688 292.43 212.384 293.582 212.384C294.735 212.384 295.721 212.69 296.543 213.303C297.369 213.91 297.997 214.792 298.432 215.949C298.874 217.1 299.094 218.491 299.094 220.123C299.094 221.764 298.877 223.165 298.44 224.326C298.005 225.483 297.374 226.367 296.551 226.979C295.729 227.587 294.738 227.891 293.582 227.891ZM293.582 225.928C294.601 225.928 295.397 225.431 295.972 224.437C296.549 223.442 296.838 222.004 296.838 220.123C296.838 218.873 296.706 217.818 296.443 216.955C296.181 216.088 295.806 215.432 295.317 214.986C294.831 214.535 294.254 214.31 293.582 214.31C292.567 214.31 291.773 214.81 291.194 215.809C290.617 216.808 290.325 218.246 290.32 220.123C290.32 221.377 290.449 222.438 290.71 223.305C290.974 224.167 291.349 224.821 291.833 225.267C292.319 225.708 292.901 225.928 293.582 225.928ZM301.702 227.641V225.994L306.795 220.718C307.338 220.145 307.786 219.643 308.14 219.212C308.497 218.775 308.764 218.362 308.94 217.97C309.115 217.577 309.206 217.161 309.206 216.72C309.206 216.22 309.087 215.789 308.852 215.427C308.616 215.059 308.295 214.778 307.889 214.582C307.483 214.381 307.025 214.28 306.516 214.28C305.975 214.28 305.507 214.39 305.103 214.611C304.702 214.832 304.394 215.143 304.177 215.544C303.962 215.946 303.854 216.416 303.854 216.955H301.686C301.686 216.039 301.898 215.238 302.32 214.552C302.739 213.866 303.318 213.335 304.053 212.958C304.788 212.575 305.623 212.384 306.56 212.384C307.504 212.384 308.337 212.573 309.059 212.95C309.783 213.323 310.349 213.832 310.755 214.479C311.162 215.12 311.366 215.846 311.366 216.654C311.366 217.213 311.26 217.759 311.05 218.293C310.843 218.827 310.484 219.422 309.969 220.079C309.454 220.73 308.74 221.522 307.822 222.452L304.832 225.583V225.693H311.609V227.641H301.702ZM314.393 227.641V225.994L319.486 220.718C320.029 220.145 320.477 219.643 320.831 219.212C321.188 218.775 321.455 218.362 321.633 217.97C321.809 217.577 321.897 217.161 321.897 216.72C321.897 216.22 321.778 215.789 321.543 215.427C321.31 215.059 320.986 214.778 320.58 214.582C320.174 214.381 319.716 214.28 319.207 214.28C318.669 214.28 318.198 214.39 317.797 214.611C317.393 214.832 317.085 215.143 316.871 215.544C316.653 215.946 316.547 216.416 316.547 216.955H314.38C314.38 216.039 314.589 215.238 315.011 214.552C315.432 213.866 316.009 213.335 316.744 212.958C317.479 212.575 318.314 212.384 319.251 212.384C320.197 212.384 321.03 212.573 321.749 212.95C322.474 213.323 323.04 213.832 323.446 214.479C323.853 215.12 324.057 215.846 324.057 216.654C324.057 217.213 323.951 217.759 323.741 218.293C323.534 218.827 323.175 219.422 322.66 220.079C322.145 220.73 321.431 221.522 320.516 222.452L317.523 225.583V225.693H324.3V227.641H314.393ZM332.795 212.59V227.641H330.516V214.868H330.428L326.827 217.22V215.045L330.583 212.59H332.795ZM336.867 227.641V225.994L341.958 220.718C342.504 220.145 342.951 219.643 343.303 219.212C343.663 218.775 343.929 218.362 344.105 217.97C344.281 217.577 344.369 217.161 344.369 216.72C344.369 216.22 344.252 215.789 344.017 215.427C343.781 215.059 343.461 214.778 343.055 214.582C342.648 214.381 342.188 214.28 341.681 214.28C341.14 214.28 340.67 214.39 340.269 214.611C339.868 214.832 339.557 215.143 339.342 215.544C339.128 215.946 339.019 216.416 339.019 216.955H336.851C336.851 216.039 337.061 215.238 337.483 214.552C337.904 213.866 338.484 213.335 339.218 212.958C339.953 212.575 340.789 212.384 341.725 212.384C342.669 212.384 343.502 212.573 344.221 212.95C344.948 213.323 345.515 213.832 345.921 214.479C346.327 215.12 346.531 215.846 346.531 216.654C346.531 217.213 346.425 217.759 346.213 218.293C346.009 218.827 345.649 219.422 345.134 220.079C344.62 220.73 343.903 221.522 342.987 222.452L339.997 225.583V225.693H346.772V227.641H336.867Z" fill="black"/>
</g>
<defs>
<clipPath id="clip0_303_2">
<rect width="432" height="432" fill="white"/>
</clipPath>
</defs>
</svg>
